<svg width="236" height="245" viewBox="0 0 236 245" fill="none" xmlns="http://www.w3.org/2000/svg">
<path fill-rule="evenodd" clip-rule="evenodd" d="M144.482 4.85062L144.507 4.84321C144.539 4.83354 144.569 4.82045 144.598 4.80446C145.924 4.29916 156.242 0.866419 170.019 0.124985C171.351 0.0572671 172.716 0.0150277 174.107 0.00332856C192.005 -0.147161 214.327 4.75271 230.495 25.4232L230.771 25.2067L230.495 25.4233C233.27 28.9704 234.602 35.3443 234.479 43.7554C234.357 52.1414 232.791 62.4618 229.866 73.8132C224.071 96.2987 212.957 122.776 197.249 146.188C196.934 145.356 196.443 144.533 195.846 143.682C195.254 142.838 194.538 141.942 193.76 140.968C193.499 140.641 193.231 140.306 192.958 139.961C192.562 139.459 192.153 138.934 191.738 138.38C191.896 138.402 192.061 138.334 192.156 138.192C197.926 129.58 198.881 120.968 198.468 112.678C198.298 109.245 197.891 105.857 197.495 102.552L197.494 102.545C197.413 101.87 197.332 101.198 197.254 100.53C196.793 96.5808 196.419 92.7607 196.547 89.0826L196.547 89.0822C196.698 84.6285 197.28 80.8746 197.845 77.2298C197.923 76.73 198 76.2323 198.075 75.7351C198.689 71.702 199.204 67.7134 198.98 63.0072C199.061 62.8959 199.098 62.7716 199.116 62.6924C199.159 62.5067 199.164 62.2788 199.15 62.0338C199.121 61.5356 199.001 60.8467 198.795 60.0052C198.382 58.3161 197.604 55.9473 196.43 53.1276C194.079 47.4866 190.125 40.0109 184.269 32.5221C175.517 21.3307 162.504 10.0987 144.243 4.93283L144.463 4.85923C144.468 4.8569 144.474 4.85402 144.482 4.85062ZM198.122 63.1833C182.765 60.7759 174.24 63.1352 170.021 67.9554C165.762 72.8196 165.725 80.371 167.798 88.6821C169.863 96.9653 173.987 105.851 177.833 113.234C179.669 116.758 181.439 119.934 182.888 122.534L183.088 122.893C184.564 125.542 185.698 127.586 186.163 128.718L186.164 128.718C187.732 132.541 189.6 135.478 191.368 137.883C191.378 137.823 191.4 137.764 191.436 137.71C197.066 129.308 198.011 120.905 197.604 112.721C197.434 109.321 197.032 105.968 196.636 102.664L196.634 102.648C196.553 101.974 196.472 101.301 196.394 100.63C195.932 96.6793 195.551 92.8021 195.682 89.0526C195.834 84.5438 196.425 80.738 196.99 77.095L196.992 77.0775C197.069 76.584 197.145 76.0936 197.219 75.6047C197.825 71.6239 198.325 67.7417 198.122 63.1833ZM229.275 151.596L229.393 151.518C214.291 154.616 206.134 153.64 201.727 151.825C199.514 150.913 198.247 149.789 197.531 148.867C197.436 148.744 197.35 148.624 197.274 148.51C197.234 148.567 197.19 148.622 197.143 148.675C196.783 149.077 196.233 149.331 195.648 149.534C195.238 149.676 194.763 149.809 194.265 149.948L194.264 149.948C194.049 150.008 193.829 150.069 193.608 150.133C192.865 150.348 192.078 150.601 191.296 150.955C189.741 151.66 188.205 152.769 187.11 154.793C186.011 156.827 185.335 159.827 185.591 164.353C185.681 165.802 187.037 166.951 189.566 167.728C192.053 168.492 195.473 168.826 199.253 168.783C206.815 168.697 215.666 167.105 221.076 164.592C224.376 163.049 227.346 161.245 229.738 159.453C232.136 157.655 233.93 155.887 234.901 154.424C235.388 153.689 235.643 153.067 235.693 152.581C235.723 152.28 235.676 152.037 235.552 151.837C234.692 151.083 232.69 150.904 229.275 151.596ZM196.197 169.733C204.206 170.074 214.652 168.482 220.902 165.62C215.315 168.059 206.658 169.565 199.263 169.649C196.702 169.678 194.275 169.537 192.167 169.199C192.621 169.275 193.1 169.366 193.606 169.474L196.197 169.733ZM189.312 168.555C190.126 168.806 191.029 169.01 192.003 169.172C187.797 168.499 185.783 169.252 184.665 171.709L185.36 166.162C186.14 167.245 187.571 168.021 189.312 168.555ZM186.348 154.381C185.19 156.523 184.513 159.554 184.702 163.921L117.953 160.16C117.839 159.206 117.603 158.259 117.269 157.353C116.16 154.347 113.933 151.692 111.294 150.596C110.079 150.033 108.567 149.407 106.807 149.557C105.116 149.702 103.269 150.555 101.267 152.69C101.094 151.301 101.062 150.022 101.169 148.751C101.338 147.386 101.65 145.956 102.065 144.457C102.829 141.7 103.933 138.747 105.119 135.576C105.297 135.099 105.478 134.616 105.659 134.129C106.326 132.336 107.133 130.552 107.993 128.649C108.463 127.609 108.949 126.533 109.437 125.401C110.812 122.214 112.177 118.633 113.168 114.285C115.15 105.584 115.619 93.8591 111.722 76.1064C110.269 69.3717 106.714 65.5962 102.168 63.8382C97.9797 62.2185 93.0036 62.3314 88.162 63.3126L92.5248 12.1589C99.2177 7.18064 107.602 3.78472 118.179 3.02265C119.996 2.89414 121.879 2.84296 123.831 2.87472C152.858 3.34705 171.984 18.219 183.587 33.0556C189.39 40.4758 193.306 47.8822 195.63 53.4607C196.793 56.2508 197.554 58.5762 197.954 60.2112C198.155 61.0318 198.261 61.6624 198.285 62.0844C198.291 62.1846 198.292 62.2669 198.29 62.3331C182.848 59.907 173.903 62.2057 169.369 67.385C164.81 72.5933 164.874 80.5339 166.958 88.8916C169.049 97.2771 173.211 106.237 177.065 113.634C178.907 117.17 180.683 120.356 182.131 122.955L182.331 123.314C183.823 125.991 184.921 127.976 185.362 129.047C187.458 134.154 190.077 137.71 192.279 140.497C192.56 140.854 192.834 141.196 193.098 141.527L193.098 141.527C193.87 142.494 194.562 143.36 195.137 144.179C195.907 145.276 196.435 146.246 196.654 147.2L196.655 147.203L196.655 147.203L196.656 147.21L196.659 147.219C196.757 147.659 196.666 147.909 196.497 148.098C196.294 148.324 195.929 148.519 195.364 148.716C194.98 148.849 194.549 148.969 194.067 149.104L194.065 149.104L194.065 149.104L194.064 149.105C193.842 149.166 193.61 149.231 193.368 149.301C192.609 149.521 191.777 149.786 190.939 150.166C189.255 150.929 187.553 152.152 186.348 154.381ZM87.2768 63.5019L91.5975 12.8404C91.2804 13.0905 90.9676 13.3442 90.659 13.6013C82.7023 20.2305 77.5022 29.1696 74.1074 38.1669C70.713 47.1632 69.1319 56.1957 68.4002 62.984C68.0345 66.3769 67.8813 69.2061 67.8195 71.1857C67.8017 71.7567 67.7915 72.2569 67.7859 72.6796C68.0292 72.4373 68.3148 72.1828 68.6366 71.9195C69.722 71.0314 71.2653 70.0067 73.1216 68.9704C76.835 66.8975 81.8446 64.7539 87.0405 63.5556C87.1192 63.5375 87.198 63.5196 87.2768 63.5019ZM67.7831 74.0407C67.8341 73.9513 67.9096 73.8399 68.0194 73.7054C68.2763 73.3905 68.6669 73.0136 69.185 72.5897C70.2189 71.7438 71.7159 70.7469 73.5437 69.7266C77.19 67.6911 82.1089 65.5862 87.1995 64.4077L80.5479 142.399C71.0786 135.527 65.1531 123.185 67.0761 109.51L67.0763 109.508C68.9422 95.8942 68.2165 83.8431 67.8481 77.7262V77.726C67.7663 76.3666 67.702 75.3002 67.6878 74.575C67.7523 74.4971 67.79 74.3965 67.7872 74.2875L67.6852 74.2902C67.6852 74.2902 67.6852 74.2901 67.6852 74.2901C67.7872 74.2874 67.7872 74.2873 67.7872 74.287L67.7871 74.2849L67.7869 74.2756L67.7861 74.2375C67.7854 74.2034 67.7845 74.1522 67.7836 74.0843C67.7834 74.0704 67.7833 74.0559 67.7831 74.0407ZM66.9153 73.8474C66.9146 73.7424 66.9142 73.6201 66.9142 73.4811C66.9146 72.944 66.9227 72.1579 66.9539 71.1587C67.0163 69.1605 67.1708 66.3091 67.5392 62.8912C68.2757 56.0578 69.8686 46.9479 73.2972 37.8612C76.7253 28.7754 81.9971 19.6909 90.1047 12.936C90.4521 12.6465 90.8047 12.3613 91.1626 12.0807C83.955 9.31559 38.0531 -7.04069 14.0901 15.0246C13.5752 15.5097 13.071 16.013 12.578 16.535C4.23253 25.3722 -0.968231 39.6523 0.150918 62.0998L0.151021 62.1019C0.365088 66.8543 2.18189 78.2821 5.29062 92.1796C8.39719 106.067 12.7862 122.387 18.1323 136.916C23.4858 151.466 29.7742 164.148 36.6504 170.827C40.0825 174.161 43.6083 175.947 47.1964 175.796C50.7818 175.645 54.5513 173.552 58.4603 168.853L58.4613 168.852C64.2526 161.937 69.7625 155.735 73.8244 151.263C75.8554 149.027 77.5247 147.222 78.6864 145.977C79.2672 145.354 79.7212 144.871 80.0301 144.544C80.1845 144.38 80.3027 144.255 80.3823 144.171L80.3982 144.154L80.462 143.406C70.4875 136.405 64.2252 123.567 66.2184 109.39C68.0688 95.8887 67.3559 84.0046 66.9864 77.8461L66.9864 77.8457C66.8913 76.2606 66.8189 75.0548 66.8189 74.2984C66.8189 74.1483 66.8547 73.9971 66.9153 73.8474ZM81.2836 143.964L81.2589 144.253C81.337 144.17 81.3968 144.107 81.4376 144.064C81.3862 144.031 81.3348 143.997 81.2836 143.964ZM88.9895 147.627C92.5456 148.767 96.3531 149.238 100.274 148.951C100.278 148.919 100.281 148.887 100.285 148.856C96.3693 149.197 92.5601 148.744 88.9895 147.627ZM81.368 142.974L88.0853 64.2125C92.9227 63.201 97.8119 63.0821 101.856 64.6459C106.103 66.2886 109.478 69.8108 110.876 76.2897L110.876 76.2913C114.752 93.9485 114.271 105.542 112.323 114.093C111.349 118.371 110.005 121.899 108.642 125.058C108.168 126.157 107.689 127.218 107.221 128.253L107.221 128.253C106.352 130.176 105.524 132.008 104.847 133.827C104.667 134.312 104.487 134.793 104.309 135.27L104.308 135.27C103.124 138.437 102.005 141.429 101.23 144.226C100.874 145.51 100.589 146.761 100.403 147.976C93.4789 148.626 86.8696 146.705 81.368 142.974ZM116.482 166.531C116.733 166.178 116.951 165.811 117.138 165.435C117.101 167.114 117.07 168.789 117.045 170.457C116.647 169.707 116.227 169.138 115.79 168.783L116.308 166.883C104.303 183.725 86.5977 180.961 78.9111 179.061C77.1764 178.609 75.1867 177.824 73.5572 176.853L73.6237 176.89C75.1937 177.76 77.0146 178.458 78.623 178.877L78.6281 178.878C86.3452 180.785 104.309 183.608 116.481 166.531L116.482 166.531ZM70.5963 172.046C70.6124 171.977 70.6335 171.907 70.6602 171.836C71.5434 170.44 74.1422 169.085 79.4293 168.006C92.2448 165.347 93.4926 163.765 97.4412 158.757C98.4954 157.42 99.7421 155.839 101.453 153.928C101.445 153.885 101.438 153.842 101.431 153.799C101.485 153.738 101.541 153.676 101.596 153.614L101.597 153.612C103.618 151.339 105.38 150.549 106.881 150.42C108.4 150.29 109.735 150.827 110.937 151.386C110.943 151.388 110.948 151.391 110.954 151.393C113.32 152.372 115.408 154.81 116.457 157.653C117.504 160.491 117.481 163.633 115.776 166.028C103.94 182.633 86.4961 179.93 78.8386 178.038C77.2952 177.636 75.5437 176.963 74.0431 176.133C72.5249 175.292 71.3335 174.328 70.8226 173.373C70.5742 172.909 70.4976 172.469 70.5963 172.046ZM39.7928 174.454C44.1459 177.308 48.7165 177.676 53.4325 174.6C51.3549 175.906 49.2866 176.574 47.233 176.661C44.6737 176.769 42.189 175.972 39.7928 174.454ZM128.553 239.248C125.833 235.99 124.506 231.925 123.461 228.725L123.461 228.725L123.46 228.723L123.46 228.723L123.46 228.722L123.459 228.721C123.194 227.907 122.946 227.15 122.699 226.476C120.194 219.653 120.367 210.93 120.799 198.148C121.128 188.404 119.902 177.958 117.884 172.395C117.93 168.64 118.007 164.838 118.115 161.037L184.66 164.786L181.368 191.035L180.651 193.225C180.606 198.766 180.011 200.915 179.319 203.416C178.695 205.671 177.992 208.211 177.542 213.78C176.246 230.362 167.005 240.295 149.127 244.095C147.554 244.431 146.084 244.659 144.707 244.792C137.764 245.057 132.915 242.969 129.439 240.04C129.134 239.783 128.838 239.518 128.553 239.248ZM96.9728 78.6183C93.8636 78.1865 91.4453 74.9045 91.618 73.6954C91.7908 72.4863 94.4681 71.7953 97.5773 72.2272C100.687 72.659 103.105 73.9545 102.932 75.25C102.759 76.5455 100.082 79.0501 96.9728 78.6183ZM187.32 71.1908C187.493 72.4 185.074 75.6819 181.965 76.1137C178.856 76.5455 176.092 74.0409 176.006 72.7454C175.919 71.4499 178.251 70.1544 181.361 69.7226C184.47 69.2908 187.147 69.9817 187.32 71.1908Z" fill="white"/>
</svg>
